<?xml version="1.0" standalone="no"?>
<!DOCTYPE svg PUBLIC "-//W3C//DTD SVG 20010904//EN"
 "http://www.w3.org/TR/2001/REC-SVG-20010904/DTD/svg10.dtd">
<svg version="1.0" xmlns="http://www.w3.org/2000/svg"
 width="500.000000pt" height="500.000000pt" viewBox="0 0 500.000000 500.000000"
 preserveAspectRatio="xMidYMid meet">
<metadata>
Created by potrace 1.11, written by Peter Selinger 2001-2013
</metadata>
<g transform="translate(0.000000,500.000000) scale(0.100000,-0.100000)"
fill="#000000" stroke="none">
<path d="M4146 4335 l2 -185 -2074 0 -2074 0 0 -30 0 -30 2073 0 2074 0 -1
-217 c-1 -120 -4 -222 -8 -228 -4 -7 -705 -10 -2072 -10 l-2066 1 0 -28 0 -28
2072 -2 2073 -3 1 -215 c0 -118 -1 -220 -3 -226 -3 -7 -607 -10 -2071 -10
l-2067 0 -3 -27 -3 -27 2069 0 c1647 0 2071 -3 2074 -12 2 -7 4 -110 3 -228
l-1 -215 -2072 -3 -2073 -2 3 -27 3 -28 2070 1 2070 0 -2 -221 c0 -121 -1
-223 -2 -227 -1 -5 -932 -8 -2071 -8 l-2070 0 0 -28 0 -27 2070 0 2070 0 1
-30 c0 -16 1 -90 1 -163 l1 -133 46 3 46 3 2 820 c1 451 3 929 3 1063 l0 243
22 -7 c58 -18 241 -112 313 -160 242 -161 340 -344 330 -614 -5 -145 -40 -260
-155 -515 -12 -27 -25 -54 -28 -60 -13 -27 67 68 105 124 101 147 162 320 168
481 6 123 -13 206 -75 335 -56 116 -96 171 -229 309 -53 55 -103 107 -111 116
-101 111 -258 346 -355 528 -38 73 -72 132 -75 132 -3 0 -4 -83 -4 -185z"/>
<path d="M3613 1709 c-144 -27 -262 -84 -355 -173 -104 -99 -165 -216 -195
-376 -10 -54 -6 -213 7 -277 51 -250 224 -433 475 -504 62 -18 106 -23 195
-23 129 0 205 17 309 66 59 29 157 98 173 122 10 14 -80 105 -90 91 -17 -24
-95 -77 -154 -105 -127 -60 -264 -67 -418 -24 -179 51 -312 193 -356 380 -19
85 -19 230 1 307 65 250 278 402 553 396 137 -3 246 -40 339 -116 33 -26 46
-32 60 -24 22 12 78 70 72 74 -118 98 -197 143 -310 173 -70 18 -238 26 -306
13z"/>
</g>
</svg>
